<svg xmlns="http://www.w3.org/2000/svg" width="980" height="580" viewBox="0 0 980 580">
<rect width="100%" height="100%" fill="white"/>
<text x="490.0" y="28" text-anchor="middle" font-family="Arial,sans-serif" font-size="20" font-weight="bold">Число клауз для семейства fresh-tail, N=1..100</text>
<line x1="90" y1="475.0" x2="940" y2="475.0" stroke="#ddd" stroke-width="1"/>
<text x="78" y="480.0" text-anchor="end" font-family="Arial,sans-serif" font-size="14">0</text>
<line x1="90" y1="426.7" x2="940" y2="426.7" stroke="#ddd" stroke-width="1"/>
<text x="78" y="431.7" text-anchor="end" font-family="Arial,sans-serif" font-size="14">60</text>
<line x1="90" y1="378.4" x2="940" y2="378.4" stroke="#ddd" stroke-width="1"/>
<text x="78" y="383.4" text-anchor="end" font-family="Arial,sans-serif" font-size="14">120</text>
<line x1="90" y1="330.1" x2="940" y2="330.1" stroke="#ddd" stroke-width="1"/>
<text x="78" y="335.1" text-anchor="end" font-family="Arial,sans-serif" font-size="14">180</text>
<line x1="90" y1="281.8" x2="940" y2="281.8" stroke="#ddd" stroke-width="1"/>
<text x="78" y="286.8" text-anchor="end" font-family="Arial,sans-serif" font-size="14">240</text>
<line x1="90" y1="233.5" x2="940" y2="233.5" stroke="#ddd" stroke-width="1"/>
<text x="78" y="238.5" text-anchor="end" font-family="Arial,sans-serif" font-size="14">300</text>
<line x1="90" y1="185.1" x2="940" y2="185.1" stroke="#ddd" stroke-width="1"/>
<text x="78" y="190.1" text-anchor="end" font-family="Arial,sans-serif" font-size="14">360</text>
<line x1="90" y1="136.8" x2="940" y2="136.8" stroke="#ddd" stroke-width="1"/>
<text x="78" y="141.8" text-anchor="end" font-family="Arial,sans-serif" font-size="14">420</text>
<line x1="90" y1="88.5" x2="940" y2="88.5" stroke="#ddd" stroke-width="1"/>
<text x="78" y="93.5" text-anchor="end" font-family="Arial,sans-serif" font-size="14">480</text>
<line x1="90" y1="40.2" x2="940" y2="40.2" stroke="#ddd" stroke-width="1"/>
<text x="78" y="45.2" text-anchor="end" font-family="Arial,sans-serif" font-size="14">540</text>
<line x1="90" y1="55" x2="90" y2="475" stroke="#333" stroke-width="1.2"/>
<line x1="90" y1="475" x2="940" y2="475" stroke="#333" stroke-width="1.2"/>
<line x1="90.0" y1="475" x2="90.0" y2="480" stroke="#333" stroke-width="1.2"/>
<text x="90.0" y="499" text-anchor="middle" font-family="Arial,sans-serif" font-size="14">1</text>
<line x1="167.3" y1="475" x2="167.3" y2="480" stroke="#333" stroke-width="1.2"/>
<text x="167.3" y="499" text-anchor="middle" font-family="Arial,sans-serif" font-size="14">10</text>
<line x1="253.1" y1="475" x2="253.1" y2="480" stroke="#333" stroke-width="1.2"/>
<text x="253.1" y="499" text-anchor="middle" font-family="Arial,sans-serif" font-size="14">20</text>
<line x1="339.0" y1="475" x2="339.0" y2="480" stroke="#333" stroke-width="1.2"/>
<text x="339.0" y="499" text-anchor="middle" font-family="Arial,sans-serif" font-size="14">30</text>
<line x1="424.8" y1="475" x2="424.8" y2="480" stroke="#333" stroke-width="1.2"/>
<text x="424.8" y="499" text-anchor="middle" font-family="Arial,sans-serif" font-size="14">40</text>
<line x1="510.7" y1="475" x2="510.7" y2="480" stroke="#333" stroke-width="1.2"/>
<text x="510.7" y="499" text-anchor="middle" font-family="Arial,sans-serif" font-size="14">50</text>
<line x1="596.6" y1="475" x2="596.6" y2="480" stroke="#333" stroke-width="1.2"/>
<text x="596.6" y="499" text-anchor="middle" font-family="Arial,sans-serif" font-size="14">60</text>
<line x1="682.4" y1="475" x2="682.4" y2="480" stroke="#333" stroke-width="1.2"/>
<text x="682.4" y="499" text-anchor="middle" font-family="Arial,sans-serif" font-size="14">70</text>
<line x1="768.3" y1="475" x2="768.3" y2="480" stroke="#333" stroke-width="1.2"/>
<text x="768.3" y="499" text-anchor="middle" font-family="Arial,sans-serif" font-size="14">80</text>
<line x1="854.1" y1="475" x2="854.1" y2="480" stroke="#333" stroke-width="1.2"/>
<text x="854.1" y="499" text-anchor="middle" font-family="Arial,sans-serif" font-size="14">90</text>
<line x1="940.0" y1="475" x2="940.0" y2="480" stroke="#333" stroke-width="1.2"/>
<text x="940.0" y="499" text-anchor="middle" font-family="Arial,sans-serif" font-size="14">100</text>
<text x="490.0" y="525" text-anchor="middle" font-family="Arial,sans-serif" font-size="14">N (число хвостов)</text>
<text transform="translate(25,265.0) rotate(-90)" text-anchor="middle" font-family="Arial,sans-serif" font-size="14">Число клауз</text>
<polyline fill="none" stroke="#1f77b4" stroke-width="2" points="90.0,435.5 98.6,433.9 107.2,432.3 115.8,430.7 124.3,429.1 132.9,427.5 141.5,425.9 150.1,424.3 158.7,422.7 167.3,421.1 175.9,419.4 184.4,417.8 193.0,416.2 201.6,414.6 210.2,413.0 218.8,411.4 227.4,409.8 236.0,408.2 244.5,406.6 253.1,405.0 261.7,403.3 270.3,401.7 278.9,400.1 287.5,398.5 296.1,396.9 304.6,395.3 313.2,393.7 321.8,392.1 330.4,390.5 339.0,388.8 347.6,387.2 356.2,385.6 364.7,384.0 373.3,382.4 381.9,380.8 390.5,379.2 399.1,377.6 407.7,376.0 416.3,374.4 424.8,372.7 433.4,371.1 442.0,369.5 450.6,367.9 459.2,366.3 467.8,364.7 476.4,363.1 484.9,361.5 493.5,359.9 502.1,358.3 510.7,356.6 519.3,355.0 527.9,353.4 536.5,351.8 545.1,350.2 553.6,348.6 562.2,347.0 570.8,345.4 579.4,343.8 588.0,342.1 596.6,340.5 605.2,338.9 613.7,337.3 622.3,335.7 630.9,334.1 639.5,332.5 648.1,330.9 656.7,329.3 665.3,327.7 673.8,326.0 682.4,324.4 691.0,322.8 699.6,321.2 708.2,319.6 716.8,318.0 725.4,316.4 733.9,314.8 742.5,313.2 751.1,311.6 759.7,309.9 768.3,308.3 776.9,306.7 785.5,305.1 794.0,303.5 802.6,301.9 811.2,300.3 819.8,298.7 828.4,297.1 837.0,295.5 845.6,293.8 854.1,292.2 862.7,290.6 871.3,289.0 879.9,287.4 888.5,285.8 897.1,284.2 905.7,282.6 914.2,281.0 922.8,279.3 931.4,277.7 940.0,276.1"/>
<polyline fill="none" stroke="#ff7f0e" stroke-width="2" points="90.0,458.9 98.6,458.1 107.2,457.3 115.8,456.5 124.3,455.7 132.9,454.9 141.5,454.1 150.1,453.3 158.7,452.5 167.3,451.7 175.9,450.8 184.4,450.0 193.0,449.2 201.6,448.4 210.2,447.6 218.8,446.8 227.4,446.0 236.0,445.2 244.5,444.4 253.1,443.6 261.7,442.8 270.3,442.0 278.9,441.2 287.5,440.4 296.1,439.6 304.6,438.8 313.2,438.0 321.8,437.2 330.4,436.4 339.0,435.5 347.6,434.7 356.2,433.9 364.7,433.1 373.3,432.3 381.9,431.5 390.5,430.7 399.1,429.9 407.7,429.1 416.3,428.3 424.8,427.5 433.4,426.7 442.0,425.9 450.6,425.1 459.2,424.3 467.8,423.5 476.4,422.7 484.9,421.9 493.5,421.1 502.1,420.2 510.7,419.4 519.3,418.6 527.9,417.8 536.5,417.0 545.1,416.2 553.6,415.4 562.2,414.6 570.8,413.8 579.4,413.0 588.0,412.2 596.6,411.4 605.2,410.6 613.7,409.8 622.3,409.0 630.9,408.2 639.5,407.4 648.1,406.6 656.7,405.8 665.3,405.0 673.8,404.1 682.4,403.3 691.0,402.5 699.6,401.7 708.2,400.9 716.8,400.1 725.4,399.3 733.9,398.5 742.5,397.7 751.1,396.9 759.7,396.1 768.3,395.3 776.9,394.5 785.5,393.7 794.0,392.9 802.6,392.1 811.2,391.3 819.8,390.5 828.4,389.7 837.0,388.8 845.6,388.0 854.1,387.2 862.7,386.4 871.3,385.6 879.9,384.8 888.5,384.0 897.1,383.2 905.7,382.4 914.2,381.6 922.8,380.8 931.4,380.0 940.0,379.2"/>
<polyline fill="none" stroke="#d62728" stroke-width="2" points="90.0,460.5 98.6,461.3 107.2,458.9 115.8,458.1 124.3,457.3 132.9,454.1 141.5,454.1 150.1,454.9 158.7,452.5 167.3,453.3 175.9,452.5 184.4,451.7 193.0,446.8 201.6,450.0 210.2,448.4 218.8,446.8 227.4,448.4 236.0,447.6 244.5,446.0 253.1,445.2 261.7,445.2 270.3,444.4 278.9,442.8 287.5,442.8 296.1,440.4 304.6,438.0 313.2,438.8 321.8,439.6 330.4,438.8 339.0,438.0 347.6,434.7 356.2,435.5 364.7,435.5 373.3,432.3 381.9,433.9 390.5,431.5 399.1,431.5 407.7,433.1 416.3,429.1 424.8,429.1 433.4,428.3 442.0,426.7 450.6,425.9 459.2,426.7 467.8,425.9 476.4,423.5 484.9,422.7 493.5,421.1 502.1,422.7 510.7,421.1 519.3,417.8 527.9,416.2 536.5,418.6 545.1,416.2 553.6,416.2 562.2,417.0 570.8,417.0 579.4,414.6 588.0,415.4 596.6,413.0 605.2,413.0 613.7,411.4 622.3,409.0 630.9,409.0 639.5,409.0 648.1,407.4 656.7,408.2 665.3,401.7 673.8,405.0 682.4,405.0 691.0,403.3 699.6,404.1 708.2,403.3 716.8,402.5 725.4,399.3 733.9,400.9 742.5,396.1 751.1,399.3 759.7,396.1 768.3,396.9 776.9,397.7 785.5,396.1 794.0,394.5 802.6,393.7 811.2,392.9 819.8,391.3 828.4,388.0 837.0,391.3 845.6,388.0 854.1,386.4 862.7,388.8 871.3,388.0 879.9,388.0 888.5,386.4 897.1,386.4 905.7,384.8 914.2,384.8 922.8,384.0 931.4,383.2 940.0,380.8"/>
<polyline fill="none" stroke="#2ca02c" stroke-width="2" points="90.0,405.0 98.6,403.3 107.2,398.5 115.8,395.3 124.3,392.1 132.9,386.4 141.5,384.0 150.1,382.4 158.7,377.6 167.3,376.0 175.9,372.7 184.4,369.5 193.0,362.3 201.6,363.1 210.2,359.1 218.8,355.0 227.4,354.2 236.0,351.0 244.5,347.0 253.1,343.8 261.7,341.3 270.3,338.1 278.9,334.1 287.5,331.7 296.1,326.9 304.6,322.0 313.2,320.4 321.8,318.8 330.4,315.6 339.0,312.4 347.6,306.7 356.2,305.1 364.7,302.7 373.3,297.1 381.9,296.3 390.5,291.4 399.1,289.0 407.7,288.2 416.3,281.8 424.8,279.3 433.4,276.1 442.0,272.1 450.6,268.9 459.2,267.3 467.8,264.0 476.4,259.2 484.9,256.0 493.5,252.0 502.1,251.2 510.7,247.1 519.3,241.5 527.9,237.5 536.5,237.5 545.1,232.6 553.6,230.2 562.2,228.6 570.8,226.2 579.4,221.4 588.0,219.8 596.6,214.9 605.2,212.5 613.7,208.5 622.3,203.7 630.9,201.2 639.5,198.8 648.1,194.8 656.7,193.2 665.3,184.3 673.8,185.1 682.4,182.7 691.0,178.7 699.6,177.1 708.2,173.9 716.8,170.7 725.4,165.0 733.9,164.2 742.5,157.0 751.1,157.8 759.7,152.1 768.3,150.5 776.9,148.9 785.5,144.9 794.0,140.9 802.6,137.6 811.2,134.4 819.8,130.4 828.4,124.8 837.0,125.6 845.6,119.9 854.1,115.9 862.7,115.9 871.3,112.7 879.9,110.3 888.5,106.2 897.1,103.8 905.7,99.8 914.2,97.4 922.8,94.2 931.4,90.9 940.0,86.1"/>
<line x1="110" y1="480" x2="138" y2="480" stroke="#1f77b4" stroke-width="3"/>
<text x="148" y="485" font-family="Arial,sans-serif" font-size="14">#1f77b4</text>
<line x1="110" y1="502" x2="138" y2="502" stroke="#ff7f0e" stroke-width="3"/>
<text x="148" y="507" font-family="Arial,sans-serif" font-size="14">#ff7f0e</text>
<line x1="110" y1="524" x2="138" y2="524" stroke="#d62728" stroke-width="3"/>
<text x="148" y="529" font-family="Arial,sans-serif" font-size="14">#d62728</text>
<line x1="110" y1="546" x2="138" y2="546" stroke="#2ca02c" stroke-width="3"/>
<text x="148" y="551" font-family="Arial,sans-serif" font-size="14">#2ca02c</text>
<text x="90" y="568" font-family="Arial,sans-serif" font-size="13" fill="#555">CSV: benchmarks/freshTail/fresh-tail-n1-100.csv</text>
</svg>
